<svg xmlns="http://www.w3.org/2000/svg" viewBox="0 0 2827.18 766.9"><defs><style>.cls-1{fill:#250368;}.cls-2{fill:#3fd9fa;}.cls-3{fill:#4d7ff9;}.cls-4{fill:#240065;}</style></defs><title>logo_new</title><g id="Layer_2" data-name="Layer 2"><g id="Layer_1-2" data-name="Layer 1"><path class="cls-1" d="M877.9,381.3a10,10,0,0,1-10-10V348.74c0-6.28,3.18-14.69,4.13-17.08a11.18,11.18,0,0,1,.58-1.21c6.46-11.48,20.39-28.6,46.78-30.95a10,10,0,0,0,9-11.06L923.64,247a10,10,0,0,0-9.09-8.81c-18-1.37-62.7,1.28-102,52.21A60.78,60.78,0,0,0,806,301l-3.47,7.17A124.8,124.8,0,0,0,790,362.63V629.9a10,10,0,0,0,10,10h59.7a10,10,0,0,0,10-10V466.31a10,10,0,0,1,10-10h56.24a10,10,0,0,0,10-10V391.27a10,10,0,0,0-10-10Z"/><polygon class="cls-2" points="1340.23 264.92 1460.07 295.87 1798.41 0 1340.23 264.92"/><polygon class="cls-2" points="1518.41 310.94 1654.16 345.99 1798.41 0 1518.41 310.94"/><polygon class="cls-3" points="1460.07 295.87 1518.41 394.35 1568.46 323.88 1518.41 310.94 1798.41 0 1460.07 295.87"/><polygon class="cls-4" points="1518.41 310.94 1518.41 394.35 1568.46 323.84 1518.41 310.94"/><path class="cls-4" d="M.05,626.79V278.35A13.51,13.51,0,0,1,12.66,264a13.77,13.77,0,0,1,1.7,0H185.43c88.69,0,132.72,48.05,132.72,104.72,0,35.47-18.29,66.38-58.92,81.8,40.63,13.16,73.23,47.48,73.23,85.82,0,57.39-43.46,105.29-132.72,105.29H14.36A13.65,13.65,0,0,1,0,628.7a15.19,15.19,0,0,1,0-1.91m231.14-248.7c0-17.18-10.87-33.74-42.36-33.74H88.74v69.78l98.41.58c28.62,0,44-18.86,44-36.62M194,561.74c40.06,0,49.74-21.73,49.74-37.76,0-18.29-14.31-34.43-38.26-34.43H88.74v72.08Z"/><path class="cls-4" d="M382.24,626.79V386.43a13.66,13.66,0,0,1,12.36-14.84,14.11,14.11,0,0,1,1.95,0h57.39a13.66,13.66,0,0,1,14.35,12.93,14.08,14.08,0,0,1,0,1.95V626.75a13.65,13.65,0,0,1-12.36,14.84,12.7,12.7,0,0,1-1.95,0H396.55A13.66,13.66,0,0,1,382.2,628.7a14.11,14.11,0,0,1,0-2"/><path class="cls-4" d="M519.56,626.21V601a36.22,36.22,0,0,1,1.72-13.16c16.6-42.89,62.94-102.43,100.13-139.62H535a14.73,14.73,0,0,1-15.31-14.13q0-.58,0-1.17V387.05a14.74,14.74,0,0,1,14.13-15.31H722.49a14.43,14.43,0,0,1,15.31,13.49,13.82,13.82,0,0,1,0,1.82l-.58,27.47a20.93,20.93,0,0,1-5.16,16C692,471.76,636.41,535.84,623.93,569H725.21a14.73,14.73,0,0,1,15.3,14.14,11.42,11.42,0,0,1,0,1.17V626.1a14.72,14.72,0,0,1-14.13,15.3,11.41,11.41,0,0,1-1.17,0H533.52c-9.14,0-14.31-6.27-14.31-15.3"/><path class="cls-4" d="M1001.09,626.79V255.47a13.51,13.51,0,0,1,12.53-14.42,15.1,15.1,0,0,1,1.78,0h55.52a13.52,13.52,0,0,1,14.31,12.65,15.32,15.32,0,0,1,0,1.66V626.67a13.67,13.67,0,0,1-12.36,14.85,14.11,14.11,0,0,1-1.95,0H1015.4a13.66,13.66,0,0,1-14.35-12.94,14.11,14.11,0,0,1,0-2"/><path class="cls-4" d="M1188.76,745.24c-7.42-2.87-9.14-10.29-5.74-17.75l16-37.76c2.87-8.57,11.48-11.48,20-7.43,20.59,9.15,33.75,12,48.06,12,48.05,0,69.25-30.92,62.94-77.25-14.31,17.18-39.49,30.34-71.51,30.34-59.5,0-119.57-39.48-119.57-137.32V386.43a13.66,13.66,0,0,1,12.36-14.84,14.11,14.11,0,0,1,2,0h56.63a13.66,13.66,0,0,1,14.35,12.93,14.08,14.08,0,0,1,0,1.95V512.69c0,39.49,17.18,61.8,50.35,61.8,24.6,0,47.48-12,56.63-38.27V386.43a13.81,13.81,0,0,1,14.88-14.88h54.41a13.65,13.65,0,0,1,14.34,12.93,12.68,12.68,0,0,1,0,1.95V617c0,112.15-53.79,149.91-135.59,149.91-37.76,0-64.09-6.85-90.41-21.73"/><path class="cls-2" d="M462.36,301.27a37.23,37.23,0,1,1,0-.08h0"/><path class="cls-2" d="M1707.92,372.28a136.53,136.53,0,0,1,28.43,3A154,154,0,0,1,1764,384a146.93,146.93,0,0,1,25.41,13.73,133.28,133.28,0,0,1,21.69,18.25L1776.68,458a101.93,101.93,0,0,0-31.61-25,79.29,79.29,0,0,0-67.83-3A77.17,77.17,0,0,0,1652,447.08a81.25,81.25,0,0,0-23,57.39,82.93,82.93,0,0,0,6.16,32.18A80.83,80.83,0,0,0,1652,562.4a77.1,77.1,0,0,0,25.25,17.1,79.34,79.34,0,0,0,31.42,6.2,84.89,84.89,0,0,0,35.88-8.27,109.76,109.76,0,0,0,32.14-22.57l34.78,38a161.36,161.36,0,0,1-49,34.24,135.77,135.77,0,0,1-56.82,12.78,142.06,142.06,0,0,1-54.41-10.33,133.27,133.27,0,0,1-43.54-28.39,131.28,131.28,0,0,1-28.81-42.54,134.66,134.66,0,0,1-10.44-53.22,129.42,129.42,0,0,1,40-95,136.29,136.29,0,0,1,44.08-27.81,147.82,147.82,0,0,1,55.32-10.14"/><polygon class="cls-2" points="2002.87 585.54 2002.87 637.42 1831.66 637.42 1831.66 374.15 1890.69 374.15 1890.69 585.54 2002.87 585.54"/><path class="cls-2" d="M2144.9,372.28a150.53,150.53,0,0,1,55.7,10.33,137.72,137.72,0,0,1,44.69,28,128.07,128.07,0,0,1,29.54,42.32,132.73,132.73,0,0,1-29.54,148.57,138.37,138.37,0,0,1-44.69,28.39,148.26,148.26,0,0,1-55.7,10.33,150.74,150.74,0,0,1-55.71-10.29,136,136,0,0,1-44.69-28.2A129.67,129.67,0,0,1,2015,559a138.21,138.21,0,0,1,0-106.44,125.58,125.58,0,0,1,29.54-42.32,138.87,138.87,0,0,1,44.69-27.66,150.68,150.68,0,0,1,55.71-10.14m.76,51.88a80.38,80.38,0,0,0-57,23.49,82.54,82.54,0,0,0-17.37,25.94,82.73,82.73,0,0,0,17.57,90.64,82.27,82.27,0,0,0,25.59,17.49,76.55,76.55,0,0,0,31,6.39,75.23,75.23,0,0,0,30.84-6.39,80.38,80.38,0,0,0,42.09-43.62,84.26,84.26,0,0,0,6.16-32.33,83.32,83.32,0,0,0-6.16-32.14,81.73,81.73,0,0,0-17-25.94,78.47,78.47,0,0,0-25.21-17.29,77,77,0,0,0-30.84-6.2"/><path class="cls-2" d="M2540.67,527.23a126.89,126.89,0,0,1-8.08,46.68,99.45,99.45,0,0,1-23.37,35.55,102.27,102.27,0,0,1-37,22.57,155.66,155.66,0,0,1-97.95,0,106.15,106.15,0,0,1-37.38-22.57A99.34,99.34,0,0,1,2313,573.91a124.11,124.11,0,0,1-8.42-46.83V374h59.07v153q0,28.57,16.65,44.77A59.28,59.28,0,0,0,2423.47,588q26.57,0,42.44-16.18t15.87-44.77V374h58.89Z"/><path class="cls-2" d="M2689.58,374.15a156.61,156.61,0,0,1,55.71,9.61,125.76,125.76,0,0,1,43.54,27.08,123.32,123.32,0,0,1,28.23,41.56,136.7,136.7,0,0,1,10.1,53.56,134.94,134.94,0,0,1-10.29,53.22,122.32,122.32,0,0,1-28.77,41.51A129.31,129.31,0,0,1,2744,627.78a160.22,160.22,0,0,1-56.62,9.61H2578.54V374.15Zm-52,213.23h53.56a77.2,77.2,0,0,0,30.27-5.82A69.5,69.5,0,0,0,2745.36,565a78.15,78.15,0,0,0,15.88-25.75,96.38,96.38,0,0,0-.15-66.38,77,77,0,0,0-16.46-25.95,74.65,74.65,0,0,0-24.86-16.72,80.37,80.37,0,0,0-31.23-6h-50.92Z"/></g></g></svg>