<svg id="Capa_1" enable-background="new 0 0 512 512" height="512" viewBox="0 0 512 512" width="512" xmlns="http://www.w3.org/2000/svg" xmlns:xlink="http://www.w3.org/1999/xlink"><linearGradient id="SVGID_1_" gradientUnits="userSpaceOnUse" x1="256" x2="256" y1="512" y2="0"><stop offset="0" stop-color="#ffc2cc"/><stop offset="1" stop-color="#fff2f4"/></linearGradient><linearGradient id="SVGID_2_" gradientUnits="userSpaceOnUse" x1="256" x2="256" y1="407" y2="105"><stop offset="0" stop-color="#ffa68d"/><stop offset="1" stop-color="#fd3a84"/></linearGradient><g><g><circle cx="256" cy="256" fill="url(#SVGID_1_)" r="256"/></g><g><g><path d="m113.882 176.059c4.91 0 8.882-3.973 8.882-8.882v-44.412h44.412c4.91 0 8.882-3.973 8.882-8.882 0-4.91-3.973-8.882-8.882-8.882h-53.294c-4.91 0-8.882 3.973-8.882 8.882v53.294c0 4.909 3.973 8.882 8.882 8.882zm284.236-71.059h-53.294c-4.91 0-8.882 3.973-8.882 8.882 0 4.91 3.973 8.882 8.882 8.882h44.412v44.412c0 4.91 3.973 8.882 8.882 8.882 4.91 0 8.882-3.973 8.882-8.882v-53.294c0-4.909-3.973-8.882-8.882-8.882zm-230.942 284.235h-44.412v-44.412c0-4.91-3.973-8.882-8.882-8.882-4.91 0-8.882 3.973-8.882 8.882v53.294c0 4.91 3.973 8.882 8.882 8.882h53.294c4.91 0 8.882-3.973 8.882-8.882.001-4.909-3.972-8.882-8.882-8.882zm230.942-53.294c-4.91 0-8.882 3.973-8.882 8.882v44.412h-44.412c-4.91 0-8.882 3.973-8.882 8.882 0 4.91 3.973 8.882 8.882 8.882h53.294c4.91 0 8.882-3.973 8.882-8.882v-53.294c0-4.909-3.973-8.882-8.882-8.882zm-26.647-79.941c0-4.91-3.973-8.882-8.882-8.882h-27.545c-4.152-36.906-33.255-66.009-70.161-70.161v-27.545c0-4.91-3.973-8.882-8.882-8.882s-8.882 3.973-8.882 8.882v27.545c-36.906 4.152-66.009 33.255-70.161 70.161h-27.545c-4.91 0-8.882 3.973-8.882 8.882 0 4.91 3.973 8.882 8.882 8.882h27.545c4.152 36.906 33.255 66.009 70.161 70.161v27.545c0 4.91 3.973 8.882 8.882 8.882s8.882-3.973 8.882-8.882v-27.545c36.906-4.152 66.009-33.255 70.161-70.161h27.545c4.909 0 8.882-3.972 8.882-8.882zm-79.942 8.882h25.749c-3.933 27.125-25.271 48.464-52.396 52.396v-25.749c0-4.91-3.973-8.882-8.882-8.882s-8.882 3.973-8.882 8.882v25.749c-27.125-3.933-48.464-25.271-52.396-52.396h25.749c4.91 0 8.882-3.973 8.882-8.882 0-4.91-3.973-8.882-8.882-8.882h-25.749c3.933-27.125 25.271-48.464 52.396-52.396v25.749c0 4.91 3.973 8.882 8.882 8.882s8.882-3.973 8.882-8.882v-25.749c27.125 3.933 48.464 25.271 52.396 52.396h-25.749c-4.91 0-8.882 3.973-8.882 8.882 0 4.91 3.973 8.882 8.882 8.882z" fill="url(#SVGID_2_)"/></g></g></g></svg>