<svg width="56" height="56" viewBox="0 0 56 56" fill="none" xmlns="http://www.w3.org/2000/svg">
<path d="M28 18.5938C33.1345 18.5938 37.2969 14.4314 37.2969 9.29688C37.2969 4.16235 33.1345 0 28 0C22.8655 0 18.7031 4.16235 18.7031 9.29688C18.7031 14.4314 22.8655 18.5938 28 18.5938Z" fill="#0027F5"/>
<path d="M34.8314 19.8532C32.863 21.1315 30.5168 21.875 28 21.875C25.4831 21.875 23.1369 21.1315 21.1685 19.8532C18.9925 20.6848 16.975 21.9116 15.2207 23.4862L28 28.2785L40.7792 23.4862C39.025 21.9116 37.0075 20.6847 34.8314 19.8532Z" fill="#0027F5"/>
<path d="M47.6875 33.9062H46.5938C45.6877 33.9062 44.9531 34.6408 44.9531 35.5469V39.9219C44.9531 40.8279 45.6877 41.5625 46.5938 41.5625H47.6875C49.8017 41.5625 51.5156 39.8486 51.5156 37.7344C51.5156 35.6202 49.8017 33.9062 47.6875 33.9062Z" fill="#0027F5"/>
<path d="M9.5655 25.624C9.12319 25.9305 8.85938 26.4343 8.85938 26.9724V30.625H9.40625C12.1202 30.625 14.3281 32.833 14.3281 35.5469V39.9219C14.3281 42.6358 12.1202 44.8438 9.40625 44.8438H8.85938V48.3006C8.85938 48.9845 9.28364 49.5967 9.92392 49.8368L26.3594 56V31.1675L11.0761 25.4363C10.5722 25.2472 10.0077 25.3173 9.5655 25.624Z" fill="#0027F5"/>
<path d="M41.6719 39.9219V35.5469C41.6719 32.833 43.8798 30.625 46.5938 30.625H47.1406V26.9724C47.1406 26.4343 46.8768 25.9305 46.4345 25.624C45.9922 25.3173 45.4276 25.2472 44.9239 25.4363L29.6406 31.1675V56L46.0761 49.8368C46.7164 49.5967 47.1406 48.9845 47.1406 48.3006V44.8438H46.5938C43.8798 44.8438 41.6719 42.6358 41.6719 39.9219Z" fill="#0027F5"/>
<path d="M11.0469 39.9219V35.5469C11.0469 34.6408 10.3123 33.9062 9.40625 33.9062H8.3125C6.19828 33.9062 4.48438 35.6202 4.48438 37.7344C4.48438 39.8486 6.19828 41.5625 8.3125 41.5625H9.40625C10.3123 41.5625 11.0469 40.8279 11.0469 39.9219Z" fill="#0027F5"/>
</svg>
