<svg width="26" height="26" viewBox="0 0 26 26" fill="none" xmlns="http://www.w3.org/2000/svg">
<path d="M15.1095 0.952096C14.8079 0.808229 14.4525 0.846362 14.1925 1.0561L5.7616 7.8005H1.73333C0.778267 7.8005 0 8.57876 0 9.53383V16.4672C0 17.4222 0.778267 18.2005 1.73333 18.2005H5.7616L14.1908 24.9449C14.3485 25.0697 14.5409 25.1338 14.7333 25.1338C14.8616 25.1338 14.9899 25.1061 15.1095 25.0489C15.4093 24.9033 15.6 24.6 15.6 24.2672V1.73383C15.6 1.40103 15.4093 1.0977 15.1095 0.952096ZM5.2 16.4672H1.73333V9.53383H5.2V16.4672ZM13.8667 22.4628L6.93333 16.9161V9.0849L13.8667 3.53823V22.4628Z" fill="#10257F"/>
<path d="M19.9885 6.87142C19.6471 6.53342 19.0993 6.53862 18.7631 6.87835C18.4268 7.21982 18.4303 7.76755 18.77 8.10382C20.0787 9.39862 20.7997 11.1371 20.7997 13.0005C20.7997 14.8638 20.0787 16.6024 18.77 17.8972C18.4285 18.2334 18.4251 18.7811 18.7631 19.1226C18.9329 19.2942 19.1565 19.3792 19.3784 19.3792C19.5985 19.3792 19.8187 19.2959 19.9885 19.1278C21.63 17.5071 22.5331 15.3318 22.5331 13.0005C22.5331 10.6691 21.63 8.49382 19.9885 6.87142Z" fill="#10257F"/>
<path d="M22.4324 4.42916C22.0927 4.09289 21.5432 4.09463 21.207 4.43436C20.8707 4.77409 20.8724 5.32356 21.2122 5.65983C23.1812 7.61329 24.2663 10.2202 24.2663 13.0005C24.2663 15.7808 23.1812 18.3877 21.2122 20.3412C20.8724 20.6774 20.8707 21.2269 21.207 21.5666C21.3768 21.7382 21.5987 21.8232 21.8223 21.8232C22.0424 21.8232 22.2626 21.74 22.4324 21.5718C24.7326 19.2908 25.9996 16.247 25.9996 13.0005C25.9996 9.75396 24.7326 6.71023 22.4324 4.42916Z" fill="#10257F"/>
</svg>
