<svg width="56" height="56" viewBox="0 0 56 56" fill="none" xmlns="http://www.w3.org/2000/svg">
<path d="M46.2198 7.33524C46.24 5.50762 45.5303 3.74748 44.248 2.44507C42.9441 1.1555 41.1917 0.42059 39.3578 0.394321C37.5559 0.386471 35.8247 1.09587 34.5466 2.36612L44.248 12.1464C45.5493 10.8892 46.2645 9.14414 46.2198 7.33524Z" fill="#0027F5"/>
<path d="M42.0392 14.3547L32.3379 4.65341L9.85919 27.1321L19.5605 36.8334L42.0392 14.3547Z" fill="#0027F5"/>
<path d="M8.59719 30.2874L6.38867 40.3043L16.4056 38.0958L8.59719 30.2874Z" fill="#0027F5"/>
<path d="M54.4225 52.4507H1.57747C0.706229 52.4507 0 53.1569 0 54.0282C0 54.8994 0.706229 55.6057 1.57747 55.6057H54.4225C55.2938 55.6057 56 54.8994 56 54.0282C56 53.1569 55.2938 52.4507 54.4225 52.4507Z" fill="#0027F5"/>
</svg>
