<svg width="56" height="56" viewBox="0 0 56 56" fill="none" xmlns="http://www.w3.org/2000/svg">
<g clip-path="url(#clip0)">
<path d="M45.9999 0H10C8.89589 0.0013125 8.0012 0.896 8 2.00003V54.0001C8.00131 55.1041 8.896 55.9988 10 56.0001H46C47.1041 55.9988 47.9988 55.1041 48.0001 54.0001V2.00003C47.9988 0.896 47.1041 0.0013125 45.9999 0ZM10.29 2.28998C10.5293 2.06128 10.8637 1.96088 11.1894 2.01994C11.2557 2.02912 11.3201 2.04925 11.3798 2.07955C11.4435 2.10153 11.5038 2.13194 11.5595 2.16989C11.6121 2.20675 11.6623 2.24689 11.71 2.28998C12.0968 2.68428 12.0968 3.31559 11.71 3.70989C11.6624 3.75287 11.6122 3.7928 11.5596 3.82955C11.504 3.8675 11.4436 3.89791 11.3799 3.91989C11.3201 3.95008 11.2558 3.97031 11.1895 3.97994C11.1269 3.99142 11.0636 3.9982 11 3.99995C10.734 4.00258 10.4782 3.89802 10.2901 3.70989C10.102 3.52177 9.99752 3.26594 10 2.99994C10.0034 2.73514 10.1071 2.4815 10.29 2.28998ZM11.71 53.71C11.5191 53.894 11.2651 53.9978 11 54C10.8695 53.9983 10.7404 53.9712 10.6202 53.9199C10.4966 53.8739 10.3842 53.8023 10.2901 53.7099C9.90334 53.3156 9.90334 52.6843 10.2901 52.29C10.5294 52.0613 10.8638 51.9609 11.1895 52.02C11.2558 52.0291 11.3202 52.0493 11.3799 52.0796C11.4436 52.1015 11.5039 52.132 11.5596 52.1699C11.6094 52.2099 11.6602 52.25 11.71 52.29C12.0966 52.6843 12.0966 53.3156 11.71 53.71ZM45.9795 53.1997C45.9691 53.2625 45.949 53.3233 45.92 53.3799C45.898 53.4436 45.8678 53.5042 45.8302 53.5601C45.7902 53.6098 45.7501 53.6597 45.7101 53.7099C45.6603 53.7499 45.6095 53.79 45.5597 53.8296C45.5041 53.8675 45.4437 53.8979 45.38 53.9199C45.3202 53.9501 45.2559 53.9703 45.1896 53.98C45.127 53.9914 45.0637 53.9981 45.0001 54C44.9363 53.9981 44.8726 53.9914 44.8097 53.98C44.7438 53.9703 44.6798 53.9501 44.6203 53.9199C44.5563 53.8979 44.4956 53.8675 44.4396 53.8296C44.3898 53.79 44.34 53.7499 44.2902 53.7099C44.1057 53.5194 44.0018 53.2651 44.0002 53C44.0018 52.8691 44.029 52.7399 44.0803 52.6195C44.1285 52.4973 44.1998 52.3854 44.2903 52.29C44.6913 51.9199 45.3092 51.9199 45.7102 52.29C45.7502 52.3398 45.7903 52.3896 45.8303 52.4497C45.8696 52.5009 45.9 52.5583 45.9201 52.6197C45.9714 52.74 45.9986 52.8692 46.0002 53.0001C45.9985 53.067 45.9916 53.1338 45.9795 53.1997ZM45.9999 25C46 25.2652 45.8947 25.5196 45.7071 25.7072C45.5196 25.8948 45.2652 26.0001 44.9999 26C43.8953 26 42.9999 26.8954 42.9999 28C42.9999 29.1046 43.8953 30 44.9999 30C45.2652 29.9999 45.5196 30.1053 45.7071 30.2928C45.8947 30.4804 46 30.7348 45.9999 31V46.0001C45.9998 46.2653 45.8945 46.5196 45.7069 46.7071L38.7069 53.7071C38.5195 53.8946 38.2652 54.0001 37.9999 54.0001H17.9999C17.7347 54.0001 17.4804 53.8946 17.2929 53.7071L10.2929 46.7071C10.1054 46.5196 10 46.2653 9.99992 46.0001V31C9.99981 30.7348 10.1051 30.4804 10.2927 30.2928C10.4803 30.1053 10.7347 29.9999 10.9999 30C12.1045 30 13 29.1046 13 28C13 26.8954 12.1045 26 10.9999 26C10.7347 26.0001 10.4803 25.8948 10.2927 25.7072C10.1051 25.5196 9.99981 25.2652 9.99992 25V10C10 9.73481 10.1054 9.48052 10.2929 9.29305L17.2929 2.29305C17.4804 2.10547 17.7347 2.00003 17.9999 2.00003H37.9999C38.2652 2.00003 38.5195 2.10547 38.7069 2.29305L45.7069 9.29305C45.8945 9.48052 45.9998 9.73481 45.9999 10V25ZM45.9795 3.18992C45.9705 3.25609 45.9504 3.32041 45.9199 3.37991C45.8999 3.44127 45.8694 3.4988 45.8301 3.54988C45.79 3.60992 45.75 3.6598 45.71 3.71C45.6602 3.75003 45.6094 3.79006 45.5596 3.82966C45.504 3.86761 45.4435 3.89802 45.3799 3.92C45.3201 3.95019 45.2557 3.97042 45.1895 3.98005C45.1269 3.99153 45.0636 3.9982 45 4.00006C44.734 4.00269 44.4782 3.89812 44.2901 3.71C44.1019 3.52187 43.9975 3.26605 44 3.00005C44.0017 2.73481 44.1056 2.48052 44.29 2.29009L44.4394 2.17C44.4953 2.13205 44.5561 2.10164 44.6201 2.07966C44.6794 2.04947 44.7435 2.02934 44.8095 2.02016C44.9343 1.98986 45.0646 1.98986 45.1894 2.02016C45.2556 2.02934 45.3201 2.04947 45.3798 2.07977C45.4434 2.10175 45.5039 2.13216 45.5595 2.17011C45.6092 2.21014 45.6601 2.25017 45.7099 2.2902C45.7499 2.33997 45.7899 2.38984 45.83 2.44016C45.8675 2.49594 45.8977 2.55631 45.9198 2.61986C45.9487 2.67652 45.9689 2.73722 45.9794 2.8C45.9911 2.86617 45.9979 2.93311 45.9999 3.00027C45.9985 3.06381 45.9916 3.12736 45.9795 3.18992Z" fill="#0027F5"/>
<path d="M19.9999 32.9296C19.9994 33.2641 20.1667 33.5765 20.4451 33.7617L28.0506 38.832C28.2148 38.9417 28.4078 39.0001 28.6053 39H35.9998V36.9999H29.9998C29.4476 36.9999 28.9998 36.5522 28.9998 35.9999C28.9998 35.4476 29.4475 34.9999 29.9998 34.9999H35.9998V17.0029L19.9998 16.9999V32.9296H19.9999ZM30.9999 20C30.9999 19.4478 31.4476 19 31.9999 19C32.5522 19 33 19.4476 33 20V22C33 22.5523 32.5523 23 31.9999 23C31.4477 23 30.9999 22.5524 30.9999 22V20ZM26.9999 20C26.9999 19.4478 27.4475 19 27.9999 19C28.5522 19 28.9999 19.4476 28.9999 20V22C28.9999 22.5523 28.5522 23 27.9999 23C27.4475 23 26.9999 22.5524 26.9999 22V20ZM22.9999 20C22.9999 19.4478 23.4476 19 23.9999 19C24.5522 19 24.9999 19.4476 24.9999 20V22C24.9999 22.5523 24.5523 23 23.9999 23C23.4477 23 22.9999 22.5524 22.9999 22V20Z" fill="#0027F5"/>
<path d="M19.9998 8V11H22.9998C22.9998 10.4478 23.4475 10 23.9998 10C24.5521 10 24.9998 10.4477 24.9998 11H26.9999C26.9999 10.4478 27.4475 10 27.9999 10C28.5522 10 28.9999 10.4477 28.9999 11H30.9999C30.9999 10.4478 31.4476 10 31.9999 10C32.5522 10 33 10.4477 33 11H36.001L36 8H19.9998Z" fill="#0027F5"/>
<path d="M18.4141 3.99994L12 10.414V24.1265C13.7661 24.5828 15 26.1759 15 28C15 29.824 13.7662 31.4173 12 31.8735V45.586L18.4141 52H37.586L44.0001 45.586V31.8735C42.234 31.4172 41 29.824 41 28C41 26.1759 42.2339 24.5827 44.0001 24.1265V10.414L37.586 3.99994H18.4141ZM19 48C16.2386 48 14 45.7614 14 43C14 40.2386 16.2386 38 19 38C21.7614 38 24 40.2386 24 43C23.9968 45.7601 21.7601 47.9968 19 48ZM38.0001 38.9999C37.9988 40.104 37.1041 40.9987 36 41H28.6055C28.0128 41.0008 27.4331 40.8252 26.9405 40.4955L19.336 35.4257C18.5004 34.8702 17.9988 33.9329 18 32.9296V17C18.0013 15.896 18.896 15.0013 20 15H36C37.1041 15.0013 37.9988 15.896 38.0001 17V38.9999ZM38.0001 10.9999C37.9988 12.104 37.1041 12.9987 36 13H20C18.896 12.9987 18.0013 12.104 18 10.9999V8C18.0013 6.89597 18.896 6.00128 20 5.99997H36C37.1041 6.00128 37.9988 6.89597 38.0001 8V10.9999Z" fill="#0027F5"/>
<path d="M18.9998 39.9999C17.343 39.9999 15.9998 41.3431 15.9998 43C15.9998 44.6569 17.3429 46 18.9998 46C20.6567 46 21.9999 44.6569 21.9999 43C21.998 41.3438 20.656 40.0018 18.9998 39.9999ZM19.9794 43.1997C19.9689 43.2625 19.9487 43.3232 19.9198 43.3798C19.8978 43.4436 19.8676 43.5041 19.83 43.56C19.7928 43.6122 19.7527 43.6623 19.7099 43.7099C19.3156 44.0967 18.6843 44.0967 18.29 43.7099C18.2471 43.6623 18.2069 43.6123 18.1699 43.5601C18.1318 43.5044 18.1016 43.4438 18.0801 43.38C18.0512 43.3232 18.0309 43.2625 18.0195 43.1998C18.0085 43.1338 18.0021 43.067 17.9999 43.0001C17.9999 42.4479 18.4476 42.0001 18.9999 42.0001C19.5523 42.0001 19.9999 42.4478 19.9999 43.0001C19.9983 43.067 19.9915 43.1338 19.9794 43.1997Z" fill="#0027F5"/>
</g>
<defs>
<clipPath id="clip0">
<rect width="56" height="56" fill="white"/>
</clipPath>
</defs>
</svg>
