<svg width="56" height="56" viewBox="0 0 56 56" fill="none" xmlns="http://www.w3.org/2000/svg">
<path d="M15.6641 26.0806C14.2911 24.4047 12.3381 23.3553 10.2119 23.1261C10.4955 25.2666 10.912 27.4793 11.3414 29.7607C11.6058 31.1643 11.8718 32.5823 12.1169 34.0178C12.3316 35.2835 13.3859 36.2031 14.6227 36.2031C15.9996 36.2031 16.8421 35.2174 17.2274 33.8234C17.8741 31.4828 17.2315 27.9911 15.6641 26.0806Z" fill="#0027F5"/>
<path d="M36.0938 18.1562C36.0938 8.2052 27.9979 0 18.0469 0C8.09583 0 0 8.2052 0 18.1562C0 22.7193 0.849187 27.2262 1.6695 31.5841C2.46094 35.7961 3.28125 40.1509 3.28125 44.4062C3.28125 50.7381 8.4338 56 14.7656 56C21.0975 56 26.25 50.7381 26.25 44.4062C26.25 43.6324 26.1715 42.8553 26.0177 42.0943C25.2166 38.1818 28.0973 33.6284 30.8082 30.9175C34.216 27.5098 36.0938 22.9772 36.0938 18.1562ZM26.1683 26.2777L23.8483 23.9577C25.8606 21.9438 26.6633 19.1576 26.0529 16.3122C25.3895 13.2264 22.7364 10.671 19.601 10.0957C14.2964 9.13784 9.84375 13.2019 9.84375 18.1562C9.84375 18.7026 9.85972 19.2537 9.89023 19.8113C13.1298 19.9699 16.1339 21.476 18.2023 23.9994C22.2602 28.9507 20.3319 34.3374 20.3283 34.8076C19.7868 37.5169 17.3868 39.4844 14.623 39.4844C11.7808 39.4844 9.36622 37.416 8.88081 34.5673C8.64205 33.1525 8.37933 31.7539 8.11814 30.3713C7.31708 26.1191 6.5625 22.1056 6.5625 18.1562C6.5625 11.0325 13.0214 5.54859 20.1922 6.86897C24.667 7.68764 28.3119 11.206 29.2604 15.6232C30.0985 19.5197 28.9416 23.5027 26.1683 26.2777Z" fill="#0027F5"/>
<path d="M56 26.3594H39.4844V29.6406H56V26.3594Z" fill="#0027F5"/>
<path d="M41.857 39.6572L40.3896 42.5919L53.5134 49.1538L54.9808 46.2191L41.857 39.6572Z" fill="#0027F5"/>
<path d="M53.5149 6.84565L40.3911 13.4076L41.8584 16.3422L54.9822 9.7803L53.5149 6.84565Z" fill="#0027F5"/>
</svg>
