<svg height="512pt" viewBox="0 0 512 512" width="512pt" xmlns="http://www.w3.org/2000/svg" xmlns:xlink="http://www.w3.org/1999/xlink"><linearGradient id="a" gradientUnits="userSpaceOnUse" x1="0" x2="512" y1="256" y2="256"><stop offset="0" stop-color="#00f1ff"/><stop offset=".231" stop-color="#00d8ff"/><stop offset=".5138" stop-color="#00c0ff"/><stop offset=".7773" stop-color="#00b2ff"/><stop offset="1" stop-color="#00adff"/></linearGradient><path d="m512 256c0 141.386719-114.613281 256-256 256s-256-114.613281-256-256 114.613281-256 256-256 256 114.613281 256 256zm0 0" fill="url(#a)"/><g fill="#fff"><path d="m256 83.355469c-95.195312 0-172.644531 71.453125-172.644531 159.285156 0 33.074219 10.710937 64.425781 31.074219 91.214844l-29.980469 74.167969c-2.289063 5.660156-.917969 12.144531 3.464843 16.390624 2.855469 2.773438 6.621094 4.230469 10.441407 4.230469 2.042969 0 4.105469-.414062 6.050781-1.273437l85.320312-37.609375c21.003907 8.074219 43.265626 12.164062 66.273438 12.164062 29.085938 0 57.84375-6.800781 83.171875-19.664062 7.386719-3.75 10.332031-12.777344 6.582031-20.164063-3.753906-7.386718-12.78125-10.332031-20.167968-6.582031-21.136719 10.734375-45.199219 16.410156-69.585938 16.410156-21.191406 0-41.59375-4.121093-60.636719-12.246093-3.816406-1.628907-8.140625-1.605469-11.9375.070312l-57.320312 25.265625 19.4375-48.082031c2.097656-5.179688 1.136719-11.097656-2.492188-15.351563-19.429687-22.792969-29.695312-50.089843-29.695312-78.941406 0-71.289063 63.988281-129.289063 142.644531-129.289063s142.644531 58 142.644531 129.289063c0 24.519531-7.609375 48.382813-22.011719 69.007813-4.742187 6.792968-3.082031 16.140624 3.710938 20.886718 6.789062 4.738282 16.140625 3.082032 20.882812-3.710937 17.9375-25.6875 27.417969-55.488281 27.417969-86.183594 0-87.832031-77.449219-159.285156-172.644531-159.285156zm0 0"/><path d="m241 302.089844c0 8.285156 6.714844 15 15 15s15-6.714844 15-15v-72.140625c0-8.285157-6.714844-15-15-15s-15 6.714843-15 15zm0 0"/><path d="m269.359375 183.855469c0 7.378906-5.980469 13.363281-13.359375 13.363281s-13.359375-5.984375-13.359375-13.363281c0-7.378907 5.980469-13.359375 13.359375-13.359375s13.359375 5.980468 13.359375 13.359375zm0 0"/></g></svg>