<svg height="512pt" viewBox="0 0 512 512" width="512pt" xmlns="http://www.w3.org/2000/svg"><path d="m31 0v512h361v-512zm0 0" fill="#4bb9ec"/><path d="m211 0h181v512h-181zm0 0" fill="#0095ff"/><g fill="#61729b"><path d="m0 422h61v30h-61zm0 0"/><path d="m0 362h61v30h-61zm0 0"/><path d="m0 271h61v30h-61zm0 0"/><path d="m0 211h61v30h-61zm0 0"/><path d="m0 61h61v30h-61zm0 0"/><path d="m0 121h61v30h-61zm0 0"/><path d="m106 91v120h210v-120zm0 0"/><path d="m136 241h150v30h-150zm0 0"/><path d="m166 301h90v30h-90zm0 0"/></g><path d="m512 31v60l-42.597656 30-2.402344-1.5-45-28.5v-60zm0 0" fill="#f2f2fc"/><path d="m512 31v60l-42.597656 30-2.402344-1.5v-88.5zm0 0" fill="#d8d8fc"/><path d="m512 91v60l-42.597656 30-2.402344-1.5-45-28.5v-60zm0 0" fill="#61729b"/><path d="m512 91v60l-42.597656 30-2.402344-1.5v-88.5zm0 0" fill="#47568c"/><path d="m512 151v241l-45 30-45-30v-241zm0 0" fill="#ff641a"/><path d="m467 151h45v241l-45 30zm0 0" fill="#f03800"/><path d="m512 392-45 120-45-120zm0 0" fill="#ffcebf"/><path d="m467 392h45l-45 120zm0 0" fill="#ffb99c"/><path d="m211 301h45v30h-45zm0 0" fill="#47568c"/><path d="m211 241h75v30h-75zm0 0" fill="#47568c"/><path d="m211 91h105v120h-105zm0 0" fill="#47568c"/></svg>